# Blender v2.93.9 OBJ File: 'wall.blend'
# www.blender.org
mtllib wall.mtl
o Cube
v 1.362500 0.325000 -0.025000
v 1.362500 0.075000 -0.025000
v 1.650000 1.000000 0.025000
v 1.650000 0.000000 0.025000
v -1.362500 0.325000 -0.025000
v -1.362500 0.075000 -0.025000
v -1.650000 1.000000 0.025000
v -1.650000 0.000000 0.025000
v 0.287500 0.075000 -0.025000
v 0.000000 1.000000 0.025000
v 0.000000 0.000000 0.025000
v 0.287500 0.325000 -0.025000
v 0.825000 0.000000 0.025000
v 1.112500 0.325000 -0.025000
v 1.112500 0.075000 -0.025000
v 0.825000 1.000000 0.025000
v -0.537500 0.075000 -0.025000
v -0.825000 1.000000 0.025000
v -0.825000 0.000000 0.025000
v -0.537500 0.325000 -0.025000
v 1.650000 1.000000 -0.025000
v 1.650000 0.000000 -0.025000
v 0.537500 0.325000 -0.025000
v 0.537500 0.075000 -0.025000
v 0.825000 0.000000 -0.025000
v -0.287500 0.075000 -0.025000
v -0.287500 0.325000 -0.025000
v 0.825000 1.000000 -0.025000
v -1.112500 0.325000 -0.025000
v 0.000000 1.000000 -0.025000
v 0.000000 0.000000 -0.025000
v -1.112500 0.075000 -0.025000
v -0.825000 0.000000 -0.025000
v -1.650000 0.000000 -0.025000
v -1.650000 1.000000 -0.025000
v -0.825000 1.000000 -0.025000
vt 0.812500 0.500000
vt 0.875000 0.500000
vt 0.875000 0.750000
vt 0.812500 0.750000
vt 0.375000 0.937500
vt 0.625000 0.937500
vt 0.625000 1.000000
vt 0.375000 1.000000
vt 0.375000 0.000000
vt 0.625000 0.000000
vt 0.625000 0.250000
vt 0.375000 0.250000
vt 0.312500 0.500000
vt 0.375000 0.500000
vt 0.375000 0.750000
vt 0.312500 0.750000
vt 0.625000 0.500000
vt 0.625000 0.750000
vt 0.187500 0.500000
vt 0.250000 0.500000
vt 0.250000 0.750000
vt 0.187500 0.750000
vt 0.375000 0.812500
vt 0.625000 0.812500
vt 0.625000 0.875000
vt 0.375000 0.875000
vt 0.687500 0.500000
vt 0.750000 0.500000
vt 0.750000 0.750000
vt 0.687500 0.750000
vt 0.125000 0.500000
vt 0.125000 0.750000
vt 0.375000 0.500000
vt 0.625000 0.500000
vt 0.625000 0.437500
vt 0.625000 0.437500
vt 0.375000 0.437500
vt 0.375000 0.437500
vt 0.375000 0.375000
vt 0.375000 0.437500
vt 0.375000 0.375000
vt 0.625000 0.375000
vt 0.625000 0.375000
vt 0.625000 0.437500
vt 0.625000 0.375000
vt 0.625000 0.312500
vt 0.625000 0.312500
vt 0.375000 0.375000
vt 0.375000 0.312500
vt 0.375000 0.312500
vt 0.375000 0.250000
vt 0.375000 0.312500
vt 0.625000 0.250000
vt 0.625000 0.312500
vt 0.000473 -0.001516
vt 1.002008 0.000965
vt 0.999527 1.003504
vt 0.002953 1.001023
vt 0.000473 0.000473
vt 0.999527 -0.002008
vt 0.997047 1.000531
vt 0.002953 1.000531
vt 0.000473 -0.000020
vt 0.997047 -0.002500
vt 0.997047 0.997559
vt 0.005433 1.000039
vt -0.002008 0.001969
vt 0.999527 -0.002992
vt 1.002008 0.999547
vt 0.000473 0.999547
vn 0.0000 1.0000 0.0000
vn 0.0000 0.0000 1.0000
vn -1.0000 0.0000 0.0000
vn 0.0000 -1.0000 0.0000
vn 1.0000 0.0000 0.0000
vn 0.0000 0.0000 -1.0000
usemtl base
s off
f 36/1/1 35/2/1 7/3/1 18/4/1
f 19/5/2 18/6/2 7/7/2 8/8/2
f 8/9/3 7/10/3 35/11/3 34/12/3
f 25/13/4 22/14/4 4/15/4 13/16/4
f 22/14/5 21/17/5 3/18/5 4/15/5
f 33/19/4 31/20/4 11/21/4 19/22/4
f 13/23/2 16/24/2 10/25/2 11/26/2
f 28/27/1 30/28/1 10/29/1 16/30/1
f 21/17/1 28/27/1 16/30/1 3/18/1
f 4/15/2 3/18/2 16/24/2 13/23/2
f 31/20/4 25/13/4 13/16/4 11/21/4
f 34/31/4 33/19/4 19/22/4 8/32/4
f 11/26/2 10/25/2 18/6/2 19/5/2
f 30/28/1 36/1/1 18/4/1 10/29/1
f 2/33/6 1/34/6 21/17/6 22/14/6
f 1/34/6 14/35/6 28/36/6 21/17/6
f 15/37/6 2/33/6 22/14/6 25/38/6
f 14/35/6 15/37/6 25/38/6 28/36/6
f 9/39/6 24/40/6 25/38/6 31/41/6
f 12/42/6 9/39/6 31/41/6 30/43/6
f 23/44/6 12/42/6 30/43/6 28/36/6
f 24/40/6 23/44/6 28/36/6 25/38/6
f 27/45/6 20/46/6 36/47/6 30/43/6
f 26/48/6 27/45/6 30/43/6 31/41/6
f 17/49/6 26/48/6 31/41/6 33/50/6
f 20/46/6 17/49/6 33/50/6 36/47/6
f 6/51/6 32/52/6 33/50/6 34/12/6
f 5/53/6 6/51/6 34/12/6 35/11/6
f 29/54/6 5/53/6 35/11/6 36/47/6
f 32/52/6 29/54/6 36/47/6 33/50/6
usemtl tag1
f 15/55/6 14/56/6 1/57/6 2/58/6
usemtl tag2
f 9/59/6 12/60/6 23/61/6 24/62/6
usemtl tag3
f 17/63/6 20/64/6 27/65/6 26/66/6
usemtl tag4
f 6/67/6 5/68/6 29/69/6 32/70/6
